<mxfile host="app.diagrams.net" agent="Mozilla/5.0 (Windows NT 10.0; Win64; x64) AppleWebKit/537.36 (KHTML, like Gecko) Chrome/138.0.0.0 Safari/537.36 Edg/138.0.0.0" version="28.0.7">
  <diagram name="Seite-1" id="H95R0P3Kwt2uwKNgy9LT">
    <mxGraphModel grid="1" page="1" gridSize="10" guides="1" tooltips="1" connect="1" arrows="1" fold="1" pageScale="1" pageWidth="827" pageHeight="1169" math="0" shadow="0">
      <root>
        <mxCell id="0" />
        <mxCell id="1" parent="0" />
        <mxCell id="HPuyMCrxtLiNgw7tcsRH-31" value="" style="rounded=1;whiteSpace=wrap;html=1;fillColor=none;" vertex="1" parent="1">
          <mxGeometry x="30" width="560" height="410" as="geometry" />
        </mxCell>
        <mxCell id="HPuyMCrxtLiNgw7tcsRH-1" value="crm_cust_info" style="swimlane;fontStyle=0;childLayout=stackLayout;horizontal=1;startSize=30;horizontalStack=0;resizeParent=1;resizeParentMax=0;resizeLast=0;collapsible=1;marginBottom=0;whiteSpace=wrap;html=1;fillColor=#dae8fc;strokeColor=#6c8ebf;fontSize=20;rounded=1;" vertex="1" parent="1">
          <mxGeometry x="400" y="50" width="160" height="90" as="geometry" />
        </mxCell>
        <mxCell id="HPuyMCrxtLiNgw7tcsRH-2" value="cst_id" style="text;strokeColor=none;fillColor=none;align=left;verticalAlign=middle;spacingLeft=4;spacingRight=4;overflow=hidden;points=[[0,0.5],[1,0.5]];portConstraint=eastwest;rotatable=0;whiteSpace=wrap;html=1;fontSize=20;" vertex="1" parent="HPuyMCrxtLiNgw7tcsRH-1">
          <mxGeometry y="30" width="160" height="30" as="geometry" />
        </mxCell>
        <mxCell id="HPuyMCrxtLiNgw7tcsRH-21" value="cst_key" style="text;strokeColor=none;fillColor=none;align=left;verticalAlign=middle;spacingLeft=4;spacingRight=4;overflow=hidden;points=[[0,0.5],[1,0.5]];portConstraint=eastwest;rotatable=0;whiteSpace=wrap;html=1;fontSize=20;" vertex="1" parent="HPuyMCrxtLiNgw7tcsRH-1">
          <mxGeometry y="60" width="160" height="30" as="geometry" />
        </mxCell>
        <mxCell id="HPuyMCrxtLiNgw7tcsRH-5" value="Customer information" style="rounded=1;whiteSpace=wrap;html=1;strokeColor=none;" vertex="1" parent="1">
          <mxGeometry x="420" y="30" width="120" height="20" as="geometry" />
        </mxCell>
        <mxCell id="HPuyMCrxtLiNgw7tcsRH-6" value="crm_prod_info" style="swimlane;fontStyle=0;childLayout=stackLayout;horizontal=1;startSize=30;horizontalStack=0;resizeParent=1;resizeParentMax=0;resizeLast=0;collapsible=1;marginBottom=0;whiteSpace=wrap;html=1;fillColor=#dae8fc;strokeColor=#6c8ebf;fontSize=20;rounded=1;" vertex="1" parent="1">
          <mxGeometry x="400" y="200" width="160" height="60" as="geometry" />
        </mxCell>
        <mxCell id="HPuyMCrxtLiNgw7tcsRH-7" value="prd_key" style="text;strokeColor=none;fillColor=none;align=left;verticalAlign=middle;spacingLeft=4;spacingRight=4;overflow=hidden;points=[[0,0.5],[1,0.5]];portConstraint=eastwest;rotatable=0;whiteSpace=wrap;html=1;fontSize=20;" vertex="1" parent="HPuyMCrxtLiNgw7tcsRH-6">
          <mxGeometry y="30" width="160" height="30" as="geometry" />
        </mxCell>
        <mxCell id="HPuyMCrxtLiNgw7tcsRH-8" value="Current &amp;amp; History Product Information" style="rounded=1;whiteSpace=wrap;html=1;strokeColor=none;" vertex="1" parent="1">
          <mxGeometry x="420" y="180" width="120" height="20" as="geometry" />
        </mxCell>
        <mxCell id="HPuyMCrxtLiNgw7tcsRH-9" value="crm_sales_details" style="swimlane;fontStyle=0;childLayout=stackLayout;horizontal=1;startSize=30;horizontalStack=0;resizeParent=1;resizeParentMax=0;resizeLast=0;collapsible=1;marginBottom=0;whiteSpace=wrap;html=1;fillColor=#dae8fc;strokeColor=#6c8ebf;fontSize=20;rounded=1;" vertex="1" parent="1">
          <mxGeometry x="100" y="130" width="160" height="90" as="geometry" />
        </mxCell>
        <mxCell id="HPuyMCrxtLiNgw7tcsRH-10" value="cst_id" style="text;strokeColor=none;fillColor=none;align=left;verticalAlign=middle;spacingLeft=4;spacingRight=4;overflow=hidden;points=[[0,0.5],[1,0.5]];portConstraint=eastwest;rotatable=0;whiteSpace=wrap;html=1;fontSize=20;" vertex="1" parent="HPuyMCrxtLiNgw7tcsRH-9">
          <mxGeometry y="30" width="160" height="30" as="geometry" />
        </mxCell>
        <mxCell id="HPuyMCrxtLiNgw7tcsRH-12" value="prd_key" style="text;strokeColor=none;fillColor=none;align=left;verticalAlign=middle;spacingLeft=4;spacingRight=4;overflow=hidden;points=[[0,0.5],[1,0.5]];portConstraint=eastwest;rotatable=0;whiteSpace=wrap;html=1;fontSize=20;" vertex="1" parent="HPuyMCrxtLiNgw7tcsRH-9">
          <mxGeometry y="60" width="160" height="30" as="geometry" />
        </mxCell>
        <mxCell id="HPuyMCrxtLiNgw7tcsRH-11" value="Sales details" style="rounded=1;whiteSpace=wrap;html=1;strokeColor=none;" vertex="1" parent="1">
          <mxGeometry x="100" y="110" width="120" height="20" as="geometry" />
        </mxCell>
        <mxCell id="HPuyMCrxtLiNgw7tcsRH-14" style="edgeStyle=orthogonalEdgeStyle;rounded=0;orthogonalLoop=1;jettySize=auto;html=1;entryX=0;entryY=0.5;entryDx=0;entryDy=0;" edge="1" parent="1" source="HPuyMCrxtLiNgw7tcsRH-10" target="HPuyMCrxtLiNgw7tcsRH-2">
          <mxGeometry relative="1" as="geometry" />
        </mxCell>
        <mxCell id="HPuyMCrxtLiNgw7tcsRH-15" style="edgeStyle=orthogonalEdgeStyle;rounded=0;orthogonalLoop=1;jettySize=auto;html=1;entryX=0;entryY=0.5;entryDx=0;entryDy=0;" edge="1" parent="1" source="HPuyMCrxtLiNgw7tcsRH-12" target="HPuyMCrxtLiNgw7tcsRH-7">
          <mxGeometry relative="1" as="geometry" />
        </mxCell>
        <mxCell id="HPuyMCrxtLiNgw7tcsRH-16" value="erp_cust_az12" style="swimlane;fontStyle=0;childLayout=stackLayout;horizontal=1;startSize=30;horizontalStack=0;resizeParent=1;resizeParentMax=0;resizeLast=0;collapsible=1;marginBottom=0;whiteSpace=wrap;html=1;fillColor=#f8cecc;strokeColor=#b85450;fontSize=20;rounded=1;" vertex="1" parent="1">
          <mxGeometry x="729" y="50" width="160" height="60" as="geometry" />
        </mxCell>
        <mxCell id="HPuyMCrxtLiNgw7tcsRH-17" value="cid" style="text;strokeColor=none;fillColor=none;align=left;verticalAlign=middle;spacingLeft=4;spacingRight=4;overflow=hidden;points=[[0,0.5],[1,0.5]];portConstraint=eastwest;rotatable=0;whiteSpace=wrap;html=1;fontSize=20;" vertex="1" parent="HPuyMCrxtLiNgw7tcsRH-16">
          <mxGeometry y="30" width="160" height="30" as="geometry" />
        </mxCell>
        <mxCell id="HPuyMCrxtLiNgw7tcsRH-18" value="extra customer information (birthdate)" style="rounded=1;whiteSpace=wrap;html=1;strokeColor=none;" vertex="1" parent="1">
          <mxGeometry x="689" y="30" width="240" height="20" as="geometry" />
        </mxCell>
        <mxCell id="HPuyMCrxtLiNgw7tcsRH-22" style="edgeStyle=orthogonalEdgeStyle;rounded=0;orthogonalLoop=1;jettySize=auto;html=1;entryX=1;entryY=0.5;entryDx=0;entryDy=0;" edge="1" parent="1" source="HPuyMCrxtLiNgw7tcsRH-17" target="HPuyMCrxtLiNgw7tcsRH-21">
          <mxGeometry relative="1" as="geometry" />
        </mxCell>
        <mxCell id="HPuyMCrxtLiNgw7tcsRH-23" value="erp_loc_a101" style="swimlane;fontStyle=0;childLayout=stackLayout;horizontal=1;startSize=30;horizontalStack=0;resizeParent=1;resizeParentMax=0;resizeLast=0;collapsible=1;marginBottom=0;whiteSpace=wrap;html=1;fillColor=#f8cecc;strokeColor=#b85450;fontSize=20;rounded=1;" vertex="1" parent="1">
          <mxGeometry x="729" y="160" width="160" height="60" as="geometry" />
        </mxCell>
        <mxCell id="HPuyMCrxtLiNgw7tcsRH-24" value="cid" style="text;strokeColor=none;fillColor=none;align=left;verticalAlign=middle;spacingLeft=4;spacingRight=4;overflow=hidden;points=[[0,0.5],[1,0.5]];portConstraint=eastwest;rotatable=0;whiteSpace=wrap;html=1;fontSize=20;" vertex="1" parent="HPuyMCrxtLiNgw7tcsRH-23">
          <mxGeometry y="30" width="160" height="30" as="geometry" />
        </mxCell>
        <mxCell id="HPuyMCrxtLiNgw7tcsRH-25" value="extra customer information (country)" style="rounded=1;whiteSpace=wrap;html=1;strokeColor=none;" vertex="1" parent="1">
          <mxGeometry x="689" y="140" width="240" height="20" as="geometry" />
        </mxCell>
        <mxCell id="HPuyMCrxtLiNgw7tcsRH-26" style="edgeStyle=orthogonalEdgeStyle;rounded=0;orthogonalLoop=1;jettySize=auto;html=1;entryX=1;entryY=0.5;entryDx=0;entryDy=0;" edge="1" parent="1" source="HPuyMCrxtLiNgw7tcsRH-24" target="HPuyMCrxtLiNgw7tcsRH-21">
          <mxGeometry relative="1" as="geometry" />
        </mxCell>
        <mxCell id="HPuyMCrxtLiNgw7tcsRH-27" value="erp_px_cat_g1v2" style="swimlane;fontStyle=0;childLayout=stackLayout;horizontal=1;startSize=30;horizontalStack=0;resizeParent=1;resizeParentMax=0;resizeLast=0;collapsible=1;marginBottom=0;whiteSpace=wrap;html=1;fillColor=#f8cecc;strokeColor=#b85450;fontSize=20;rounded=1;" vertex="1" parent="1">
          <mxGeometry x="726" y="330" width="160" height="60" as="geometry" />
        </mxCell>
        <mxCell id="HPuyMCrxtLiNgw7tcsRH-28" value="id" style="text;strokeColor=none;fillColor=none;align=left;verticalAlign=middle;spacingLeft=4;spacingRight=4;overflow=hidden;points=[[0,0.5],[1,0.5]];portConstraint=eastwest;rotatable=0;whiteSpace=wrap;html=1;fontSize=20;" vertex="1" parent="HPuyMCrxtLiNgw7tcsRH-27">
          <mxGeometry y="30" width="160" height="30" as="geometry" />
        </mxCell>
        <mxCell id="HPuyMCrxtLiNgw7tcsRH-29" value="extra customer information (country)" style="rounded=1;whiteSpace=wrap;html=1;strokeColor=none;" vertex="1" parent="1">
          <mxGeometry x="699" y="310" width="240" height="20" as="geometry" />
        </mxCell>
        <mxCell id="HPuyMCrxtLiNgw7tcsRH-30" style="edgeStyle=orthogonalEdgeStyle;rounded=0;orthogonalLoop=1;jettySize=auto;html=1;entryX=1;entryY=0.5;entryDx=0;entryDy=0;" edge="1" parent="1" source="HPuyMCrxtLiNgw7tcsRH-28" target="HPuyMCrxtLiNgw7tcsRH-7">
          <mxGeometry relative="1" as="geometry" />
        </mxCell>
        <mxCell id="HPuyMCrxtLiNgw7tcsRH-32" value="&lt;font style=&quot;font-size: 26px;&quot;&gt;CRM&lt;/font&gt;" style="rounded=1;whiteSpace=wrap;html=1;fillColor=#dae8fc;strokeColor=#6c8ebf;" vertex="1" parent="1">
          <mxGeometry x="240" y="-20" width="120" height="40" as="geometry" />
        </mxCell>
        <mxCell id="HPuyMCrxtLiNgw7tcsRH-33" value="" style="rounded=1;whiteSpace=wrap;html=1;fillColor=none;" vertex="1" parent="1">
          <mxGeometry x="639" width="280" height="410" as="geometry" />
        </mxCell>
        <mxCell id="HPuyMCrxtLiNgw7tcsRH-34" value="&lt;font style=&quot;font-size: 26px;&quot;&gt;ERP&lt;/font&gt;" style="rounded=1;whiteSpace=wrap;html=1;fillColor=#f8cecc;strokeColor=#b85450;" vertex="1" parent="1">
          <mxGeometry x="729" y="-20" width="120" height="40" as="geometry" />
        </mxCell>
        <mxCell id="7aLBMeKxjEoYZy6QNJK6-1" value="Product" style="rounded=0;whiteSpace=wrap;html=1;fillColor=#e1d5e7;strokeColor=#9673a6;" vertex="1" parent="1">
          <mxGeometry x="400" y="140" width="160" height="20" as="geometry" />
        </mxCell>
        <mxCell id="7aLBMeKxjEoYZy6QNJK6-2" value="Product" style="rounded=0;whiteSpace=wrap;html=1;fillColor=#e1d5e7;strokeColor=#9673a6;" vertex="1" parent="1">
          <mxGeometry x="726" y="110" width="160" height="20" as="geometry" />
        </mxCell>
        <mxCell id="7aLBMeKxjEoYZy6QNJK6-3" value="Customer" style="rounded=0;whiteSpace=wrap;html=1;fillColor=#d5e8d4;strokeColor=#82b366;" vertex="1" parent="1">
          <mxGeometry x="400" y="260" width="160" height="20" as="geometry" />
        </mxCell>
        <mxCell id="7aLBMeKxjEoYZy6QNJK6-4" value="Customer" style="rounded=0;whiteSpace=wrap;html=1;fillColor=#d5e8d4;strokeColor=#82b366;" vertex="1" parent="1">
          <mxGeometry x="729" y="220" width="160" height="20" as="geometry" />
        </mxCell>
        <mxCell id="7aLBMeKxjEoYZy6QNJK6-5" value="Customer" style="rounded=0;whiteSpace=wrap;html=1;fillColor=#d5e8d4;strokeColor=#82b366;" vertex="1" parent="1">
          <mxGeometry x="726" y="390" width="160" height="20" as="geometry" />
        </mxCell>
        <mxCell id="7aLBMeKxjEoYZy6QNJK6-6" value="Sales" style="rounded=0;whiteSpace=wrap;html=1;fillColor=#fff2cc;strokeColor=#d6b656;" vertex="1" parent="1">
          <mxGeometry x="100" y="220" width="160" height="20" as="geometry" />
        </mxCell>
        <mxCell id="7aLBMeKxjEoYZy6QNJK6-7" value="&lt;b&gt;&lt;font style=&quot;font-size: 18px;&quot;&gt;Integration Model &lt;/font&gt;&lt;/b&gt;(how tables are related" style="text;html=1;align=center;verticalAlign=middle;resizable=0;points=[];autosize=1;strokeColor=none;fillColor=none;" vertex="1" parent="1">
          <mxGeometry x="20" y="-117" width="300" height="40" as="geometry" />
        </mxCell>
      </root>
    </mxGraphModel>
  </diagram>
</mxfile>
